# xmcd CD database file
#
# Track frame offsets:
#	150
#	12251
#	37551
#	67745
#	84292
#	99261
#	122244
#	143573
#
# Disc length: 2187 seconds
#
# Revision: 1
# Processed by: cddbd v1.5.2PL0 Copyright (c) Steve Scherf et al.
# Submitted via: CDex 1.51
#
DISCID=4e088908
DTITLE=Rebecca Collins - Chameleon Blues
DYEAR=2007
DGENRE=Blues
TTITLE0=Aeroplane
TTITLE1=Involved
TTITLE2=Ghost Inside
TTITLE3=Lame Dog
TTITLE4=Satin Shoulder
TTITLE5=Kill For You
TTITLE6=My Dream Of You
TTITLE7=Chameleon Blues
EXTD=YEAR: 2007
EXTT0=
EXTT1=
EXTT2=
EXTT3=
EXTT4=
EXTT5=
EXTT6=
EXTT7=
PLAYORDER=
